# AST/ASF file generated using VICON BodyLanguage
# -----------------------------------------------
:version 1.10
:name VICON
:units
  mass 1.0
  length 0.45
  angle deg
:documentation
   .ast/.asf automatically generated from VICON data using
   VICON BodyBuilder and BodyLanguage model FoxedUp or BRILLIANT.MOD
:root
   order TX TY TZ RX RY RZ
   axis XYZ
   position 0 0 0  
   orientation 0 0 0 
:bonedata
  begin
     id 1 
     name lhipjoint
     direction 0.677091 -0.635792 0.370561 
     length 2.74323 
     axis 0 0 0  XYZ
  end
  begin
     id 2 
     name lfemur
     direction 0.34202 -0.939693 0  
     length 7.44995  
     axis 0 0 20  XYZ
    dof rx ry rz
    limits (-160.0 20.0)
           (-70.0 70.0)
           (-60.0 70.0)
  end
  begin
     id 3 
     name ltibia
     direction 0.34202 -0.939693 0   
     length 7.34467   
     axis 0 0 20   XYZ
    dof rx
    limits (-10.0 170.0)
  end
  begin
     id 4 
     name lfoot
     direction 0.101953 -0.280114 0.954537   
     length 1.72105   
     axis -90 7.62852e-016 20   XYZ
    dof rx rz
    limits (-45.0 90.0)
           (-70.0 20.0)
  end
  begin
     id 5 
     name ltoes
     direction 1.53537e-011 -4.21915e-011 1   
     length 0.865872   
     axis -90 7.62852e-016 20   XYZ
    dof rx
    limits (-90.0 20.0)
  end
  begin
     id 6 
     name rhipjoint
     direction -0.695735 -0.620586 0.361699   
     length 2.81045  
     axis 0 0 0  XYZ 
  end
  begin
     id 7 
     name rfemur
     direction -0.34202 -0.939693 0   
     length 7.29387   
     axis 0 0 -20   XYZ
    dof rx ry rz
    limits (-160.0 20.0)
           (-70.0 70.0)
           (-70.0 60.0)
  end
  begin
     id 8 
     name rtibia
     direction -0.34202 -0.939693 0   
     length 7.44935   
     axis 0 0 -20   XYZ
    dof rx
    limits (-10.0 170.0)
 end
 begin
     id 9 
     name rfoot
     direction -0.104163 -0.286184 0.952496   
     length 1.77731  
     axis -90 -7.62852e-016 -20   XYZ
    dof rx rz
    limits (-45.0 90.0)
           (-20.0 70.0)
  end
  begin
     id 10 
     name rtoes
     direction -1.5355e-011 -4.21888e-011 1   
     length 0.892424   
     axis -90 -7.62852e-016 -20   XYZ
    dof rx
    limits (-90.0 20.0)
  end
  begin
     id 11 
     name lowerback
     direction 0.0100202 0.997226 -0.0737589   
     length 2.16892   
     axis 0 0 0   XYZ
    dof rx ry rz
    limits (-20.0 45.0)
           (-30.0 30.0)
           (-30.0 30.0)
  end
  begin
     id 12 
     name upperback
     direction 0.00432398 0.999988 -0.00215019   
     length 2.17326   
     axis 0 0 0   XYZ
    dof rx ry rz
    limits (-20.0 45.0)
           (-30.0 30.0)
           (-30.0 30.0)
  end
  begin
     id 13 
     name thorax
     direction -0.00195047 0.999485 0.0320434   
     length 2.18139   
     axis 0 0 0   XYZ
    dof rx ry rz
    limits (-20.0 45.0)
           (-30.0 30.0)
           (-30.0 30.0)
  end
  begin
     id 14 
     name lowerneck
     direction 0.00782762 0.986241 0.165128   
     length 1.88415   
     axis 0 0 0   XYZ
    dof rx ry rz
    limits (-20.0 45.0)
           (-30.0 30.0)
           (-30.0 30.0)
  end
  begin
     id 15 
     name upperneck
     direction 0.00988667 0.981098 -0.193258   
     length 1.9242   
     axis 0 0 0   XYZ
    dof rx ry rz
    limits (-20.0 45.0)
           (-30.0 30.0)
           (-30.0 30.0)
  end
  begin
     id 16
     name head
     direction 0.00252199 0.996513 -0.0833958  
     length 1.93887  
     axis 0 0 0   XYZ
    dof rx ry rz
    limits (-20.0 45.0)
           (-30.0 30.0)
           (-30.0 30.0)
  end
  begin
     id 17 
     name lclavicle
     direction 0.929492 0.368193 -0.0218667  
     length 3.5955  
     axis 0 0 0   XYZ
    dof ry rz
    limits (-20.0 10.0)
           (0.0 20.0)
  end
  begin
     id 18 
     name lhumerus
     direction 1 -4.48972e-011 1.41911e-027   
     length 5.2795   
     axis 180 -30 -90   XYZ
    dof rx ry rz
    limits (-60.0 90.0)
           (-90.0 90.0)
           (-90.0 90.0)
  end
  begin
     id 19
     name lradius
     direction 1 -4.48963e-011 7.05772e-027   
     length 3.53504   
     axis 180 -30 -90   XYZ
    dof rx
    limits (-10.0 170.0)
  end
  begin
     id 20
     name lwrist
     direction 1 -4.48957e-011 9.54866e-027   
     length 1.76752   
     axis -7.69462e-015 90 90   XYZ
    dof ry
    limits (-180.0 0.0)
 end
  begin
     id 21 
     name lhand
     direction 1 -4.48979e-011 1.90973e-026   
     length 0.667948   
     axis -1.21857e-014 90 90   XYZ
    dof rx rz
    limits (-90.0 90.0)
           (-45.0 45.0)
  end
  begin
     id 22 
     name lfingers
     direction 1 -4.48987e-011 3.81946e-026   
     length 0.538517   
     axis -2.43714e-014 90 90   XYZ
    dof rx
    limits (0.0 90.0)
  end
  begin
     id 23
     name lthumb
     direction 0.707107 -6.34962e-011 0.707107   
     length 0.773206   
     axis -90 45 2.85299e-015   XYZ
    dof rx rz
    limits (-45.0 45.0)
           (-45.0 45.0)
  end
  begin
     id 24 
     name rclavicle
     direction -0.898763 0.414256 -0.143584   
     length 3.5176  
     axis 0 0 0   XYZ 
    dof ry rz
    limits (-10.0 20.0)
           (-20.0 0.0)
  end
  begin
     id 25 
     name rhumerus
     direction -1 -4.48971e-011 1.129e-027  
     length 5.25035   
     axis 180 30 90   XYZ
    dof rx ry rz
    limits (-90.0 60.0)
           (-90.0 90.0)
           (-90.0 90.0)
  end
  begin
     id 26 
     name rradius
     direction -1 -4.48955e-011 6.34664e-027   
     length 3.58884   
     axis 180 30 90   XYZ
    dof rx
    limits (-10.0 170.0)
  end
  begin
     id 27 
     name rwrist
     direction -1 -4.48966e-011 9.54866e-027   
     length 1.79442   
     axis -7.69462e-015 -90 -90   XYZ
    dof ry
    limits (-180.0 0.0)
  end
  begin
     id 28
     name rhand
     direction -1 -4.48973e-011 1.90973e-026   
     length 0.779235   
     axis -1.21857e-014 -90 -90   XYZ
    dof rx rz
    limits (-90.0 90.0)
           (-45.0 45.0)
  end
  begin
     id 29
     name rfingers
     direction -1 -4.48984e-011 3.81946e-026   
     length 0.62824   
     axis -2.43714e-014 -90 -90   XYZ
    dof rx
    limits (0.0 90.0)
  end
  begin
     id 30
     name rthumb
     direction -0.707107 -6.34968e-011 0.707107   
     length 0.90203   
     axis -90 -45 -2.85299e-015   XYZ
    dof rx rz
    limits (-45.0 45.0)
           (-45.0 45.0)
  end
:hierarchy
  begin
    root lhipjoint rhipjoint lowerback
    lhipjoint lfemur
    lfemur ltibia
    ltibia lfoot
    lfoot ltoes
    rhipjoint rfemur
    rfemur rtibia
    rtibia rfoot
    rfoot rtoes
    lowerback upperback
    upperback thorax
    thorax lowerneck lclavicle rclavicle
    lowerneck upperneck
    upperneck head
    lclavicle lhumerus
    lhumerus lradius
    lradius lwrist
    lwrist lhand lthumb
    lhand lfingers
    rclavicle rhumerus
    rhumerus rradius
    rradius rwrist
    rwrist rhand rthumb
    rhand rfingers
  end

#!OML:ASF I:\Random Stuff\random\construction\7_22_03\Session 2\subj1.ASF
:FULLY-SPECIFIED
:DEGREES
185
root 8.17739 18.0341 -10.1942 3.44664 -40.3654 7.53997
lowerback 8.63506 -1.21831 1.97438
upperback 1.76982 -1.3782 2.79051
thorax -2.9829 -0.707215 1.93144
lowerneck -14.26 -9.73437 -9.28085
upperneck 33.9018 -19.1372 16.2555
head 17.7434 -7.42335 4.93065
rclavicle -2.66371e-014 -3.02153e-014
rhumerus -23.479 -10.0571 -68.0737
rradius 54.7583
rwrist -20.1723
rhand -38.9315 35.2229
rfingers 7.12502
rthumb -11.9376 5.58322
lclavicle -2.66371e-014 -3.02153e-014
lhumerus -33.3108 -8.67338 89.3544
lradius 44.4404
lwrist 22.9134
lhand -14.5533 53.7158
lfingers 7.12502
lthumb 11.5956 83.375
rfemur -8.79059 -0.491319 14.8849
rtibia 2.5842e-015
rfoot 3.36709 -18.5076
rtoes 7.25383
lfemur -11.9292 11.5497 -16.0774
ltibia 42.8999
lfoot -8.55668 12.4523
ltoes 5.07741
186
root 8.0747 18.0463 -10.1752 2.9149 -40.8266 7.72345
lowerback 8.76489 -1.15336 2.26278
upperback 1.88932 -1.26407 2.92983
thorax -2.93606 -0.653887 1.90277
lowerneck -14.2962 -9.71581 -9.36135
upperneck 34.0242 -19.0111 16.0162
head 17.7568 -7.3995 4.86869
rclavicle 5.40694e-014 -4.77083e-014
rhumerus -22.9455 -10.2925 -67.9211
rradius 54.1405
rwrist -19.8456
rhand -38.3909 35.9017
rfingers 7.12502
rthumb -11.4163 6.23253
lclavicle 5.40694e-014 -4.77083e-014
lhumerus -33.2972 -8.77658 89.2897
lradius 45.391
lwrist 22.5423
lhand -14.1212 54.2529
lfingers 7.12502
lthumb 12.0123 83.8882
rfemur -8.11765 -0.529307 15.0757
rtibia -1.2424e-016
rfoot 2.88956 -18.0738
rtoes 7.44362
lfemur -13.222 12.1038 -16.4759
ltibia 47.1222
lfoot -9.39587 10.9358
ltoes 5.74375
187
root 7.97609 18.0568 -10.1583 2.44688 -41.2696 7.93234
lowerback 8.7989 -1.0725 2.47221
upperback 2.02051 -1.14125 3.04463
thorax -2.82237 -0.595174 1.88932
lowerneck -14.3948 -9.7021 -9.3723
upperneck 34.1606 -18.9152 15.7799
head 17.793 -7.37453 4.78707
rclavicle -2.8625e-014 2.22639e-014
rhumerus -22.3543 -10.5159 -67.8275
rradius 53.3829
rwrist -19.2891
rhand -37.8008 36.7089
rfingers 7.12502
rthumb -10.8471 7.00898
lclavicle -2.8625e-014 2.22639e-014
lhumerus -33.1339 -8.88818 89.1815
lradius 46.3824
lwrist 22.322
lhand -14.0265 54.7292
lfingers 7.12502
lthumb 12.1036 84.3591
rfemur -7.53989 -0.5954 15.2436
rtibia -1.69215e-014
rfoot 2.51641 -17.7519
rtoes 7.07917
lfemur -14.6393 12.7007 -16.9361
ltibia 51.1478
lfoot -9.7463 9.5735
ltoes 6.8804
188
root 7.88019 18.0639 -10.1416 2.03205 -41.737 8.09315
lowerback 8.74272 -0.907567 2.73241
upperback 2.12728 -0.907746 3.07708
thorax -2.68703 -0.48099 1.74823
lowerneck -14.2717 -9.71296 -9.29263
upperneck 34.222 -18.9381 15.6715
head 17.7683 -7.38925 4.72649
rclavicle -1.04958e-013 -9.54166e-015
rhumerus -22.0265 -10.9698 -67.7562
rradius 52.6472
rwrist -18.5175
rhand -37.119 36.8354
rfingers 7.12502
rthumb -10.1894 7.10215
lclavicle -1.04958e-013 -9.54166e-015
lhumerus -32.8992 -9.09857 89.0204
lradius 47.0814
lwrist 21.6969
lhand -14.7657 55.1146
lfingers 7.12502
lthumb 11.3907 84.7852
rfemur -6.99867 -0.640759 15.4367
rtibia 1.88845e-015
rfoot 2.15352 -17.4166
rtoes 6.47433
lfemur -16.0703 13.1605 -17.3796
ltibia 54.8627
lfoot -10.4351 8.61155
ltoes 4.51214
189
root 7.78653 18.0706 -10.1175 1.75336 -42.1871 8.13427
lowerback 8.51629 -0.75532 3.14794
upperback 2.26359 -0.689897 3.06986
thorax -2.42682 -0.373618 1.47817
lowerneck -14.2651 -9.72269 -9.13556
upperneck 34.4709 -19.0187 15.5258
head 17.8755 -7.40971 4.62876
rclavicle -7.07673e-014 1.90833e-014
rhumerus -21.7424 -11.5355 -67.7883
rradius 52.0458
rwrist -17.8906
rhand -36.4653 36.5477
rfingers 7.12502
rthumb -9.55873 6.78449
lclavicle -7.07673e-014 1.90833e-014
lhumerus -32.6055 -9.31485 88.7627
lradius 47.8818
lwrist 21.3194
lhand -15.5145 55.48
lfingers 7.12502
lthumb 10.6685 85.1891
rfemur -6.51183 -0.712418 15.6965
rtibia 1.74931e-014
rfoot 1.79475 -17.043
rtoes 6.44567
lfemur -17.528 13.2708 -17.7948
ltibia 58.1882
lfoot -11.1438 7.13353
ltoes 4.12432
190
root 7.69462 18.0719 -10.0906 1.51804 -42.5858 8.13941
lowerback 8.29982 -0.691677 3.39372
upperback 2.31146 -0.598425 3.18335
thorax -2.25832 -0.328454 1.44463
lowerneck -14.0955 -9.67463 -9.14363
upperneck 34.7201 -18.9655 15.3709
head 17.9326 -7.41107 4.59386
rclavicle -2.94201e-014 1.59028e-014
rhumerus -21.5419 -11.7655 -67.8163
rradius 51.5616
rwrist -17.515
rhand -36.1992 37.5137
rfingers 7.12502
rthumb -9.30204 7.73887
lclavicle -2.94201e-014 1.59028e-014
lhumerus -32.4738 -9.13099 88.6003
lradius 48.9157
lwrist 21.4448
lhand -15.715 55.669
lfingers 7.12502
lthumb 10.4751 85.388
rfemur -6.03095 -0.840616 15.9772
rtibia -6.95746e-015
rfoot 1.56631 -16.7252
rtoes 5.67915
lfemur -18.9777 13.0285 -18.2236
ltibia 61.0632
lfoot -11.6523 6.05203
ltoes 3.29072
191
root 7.60169 18.0645 -10.0655 1.16629 -42.9502 8.20257
lowerback 8.18742 -0.652536 3.40473
upperback 2.37465 -0.553945 3.34864
thorax -2.1289 -0.306478 1.60306
lowerneck -13.9143 -9.63139 -9.20897
upperneck 34.8896 -18.9067 15.2739
head 17.9592 -7.41476 4.59254
rclavicle 6.59965e-014 -2.8625e-014
rhumerus -21.3367 -11.8076 -67.8446
rradius 51.0737
rwrist -17.3494
rhand -36.1757 39.5907
rfingers 7.12502
rthumb -9.27932 9.81493
lclavicle 6.59965e-014 -2.8625e-014
lhumerus -32.3748 -9.09401 88.6784
lradius 50.081
lwrist 21.6716
lhand -16.8387 56.48
lfingers 7.12502
lthumb 9.39099 86.2508
rfemur -5.44267 -1.00635 16.2043
rtibia -3.57812e-015
rfoot 1.32505 -16.4336
rtoes 4.37839
lfemur -20.2901 12.5426 -18.6666
ltibia 63.4452
lfoot -12.1363 5.13257
ltoes 2.61167
192
root 7.50972 18.0546 -10.0354 0.780274 -43.3699 8.24939
lowerback 8.05178 -0.640805 3.42601
upperback 2.48321 -0.550113 3.49568
thorax -1.93988 -0.304407 1.74018
lowerneck -13.5838 -9.5935 -9.34584
upperneck 34.6805 -18.8131 15.3628
head 17.7684 -7.41313 4.68121
rclavicle 1.02573e-013 -3.18055e-014
rhumerus -21.0726 -11.6692 -67.949
rradius 50.6169
rwrist -17.6906
rhand -35.9664 41.7692
rfingers 7.12502
rthumb -9.07736 11.9846
lclavicle 1.02573e-013 -3.18055e-014
lhumerus -32.3061 -9.34414 88.8812
lradius 51.4128
lwrist 21.9241
lhand -18.0232 57.4822
lfingers 7.12502
lthumb 8.24799 87.3012
rfemur -4.80191 -1.12525 16.403
rtibia 3.97569e-015
rfoot 0.891559 -16.1176
rtoes 4.63124
lfemur -21.4383 11.9483 -19.0774
ltibia 65.3211
lfoot -12.7811 4.4514
ltoes 1.66516
193
root 7.42134 18.0447 -10.0005 0.504431 -43.8659 8.15381
lowerback 7.90358 -0.602537 3.56688
upperback 2.57525 -0.502795 3.63589
thorax -1.76222 -0.280949 1.79921
lowerneck -13.5039 -9.56992 -9.42371
upperneck 34.8226 -18.7761 15.2798
head 17.8145 -7.42089 4.67676
rclavicle -1.74931e-014 1.59028e-015
rhumerus -20.9206 -11.5129 -68.1083
rradius 50.2929
rwrist -18.3049
rhand -35.7274 43.731
rfingers 7.12502
rthumb -8.8468 13.9365
lclavicle -1.74931e-014 1.59028e-015
lhumerus -32.2122 -9.53116 88.9895
lradius 52.6239
lwrist 21.725
lhand -17.9941 57.6701
lfingers 7.12502
lthumb 8.27598 87.488
rfemur -4.19523 -1.17092 16.689
rtibia -8.74653e-015
rfoot 0.449215 -15.7786
rtoes 5.32924
lfemur -22.4876 11.3233 -19.3784
ltibia 66.7032
lfoot -13.8697 4.39418
ltoes -2.31919
194
root 7.33864 18.033 -9.96818 0.416248 -44.2971 7.83811
lowerback 7.80789 -0.519291 3.92457
upperback 2.61955 -0.375036 3.72868
thorax -1.66473 -0.217472 1.68175
lowerneck -13.4421 -9.55869 -9.34738
upperneck 34.901 -18.8301 15.295
head 17.8476 -7.43499 4.66594
rclavicle -5.80451e-014 -3.81667e-014
rhumerus -20.9971 -11.5946 -68.3049
rradius 50.0826
rwrist -18.6571
rhand -35.6206 45.3202
rfingers 7.12502
rthumb -8.7437 15.5213
lclavicle -5.80451e-014 -3.81667e-014
lhumerus -32.1036 -9.95733 88.9687
lradius 53.754
lwrist 21.253
lhand -17.6489 57.6596
lfingers 7.12502
lthumb 8.60912 87.4641
rfemur -3.6425 -1.27846 17.1516
rtibia 1.59028e-015
rfoot 0.148952 -15.3961
rtoes 5.07591
lfemur -23.5376 10.5766 -19.4871
ltibia 67.6278
lfoot -14.6245 4.37975
ltoes -3.968
195
root 7.26247 18.0197 -9.94014 0.473201 -44.7035 7.42961
lowerback 7.76201 -0.438347 4.3808
upperback 2.59876 -0.236719 3.76736
thorax -1.66137 -0.149057 1.45376
lowerneck -13.2347 -9.50314 -9.17211
upperneck 34.7338 -18.852 15.476
head 17.7149 -7.42185 4.7142
rclavicle -1.90833e-014 -4.92986e-014
rhumerus -21.1724 -11.7358 -68.5985
rradius 49.8578
rwrist -18.453
rhand -35.7038 47.0404
rfingers 7.12502
rthumb -8.82397 17.2449
lclavicle -1.90833e-014 -4.92986e-014
lhumerus -32.0512 -10.5521 88.9045
lradius 55.0234
lwrist 21.0208
lhand -17.427 57.452
lfingers 7.12502
lthumb 8.82332 87.2475
rfemur -3.20434 -1.41249 17.6798
rtibia -7.95139e-016
rfoot -0.103044 -14.9872
rtoes 4.90534
lfemur -24.6431 9.76425 -19.5046
ltibia 68.1092
lfoot -15.2194 4.38481
ltoes -4.96154
